<?xml version="1.0" encoding="UTF-8" standalone="no" ?>
<!DOCTYPE svg PUBLIC "-//W3C//DTD SVG 1.1//EN" "http://www.w3.org/Graphics/SVG/1.1/DTD/svg11.dtd">
<svg xmlns="http://www.w3.org/2000/svg" xmlns:xlink="http://www.w3.org/1999/xlink" version="1.1" width="1080" height="1080" viewBox="0 0 1080 1080" xml:space="preserve">
<desc>Created with Fabric.js 5.2.4</desc>
<defs>
</defs>
<rect x="0" y="0" width="100%" height="100%" fill="transparent"></rect>
<g transform="matrix(1 0 0 1 540 540)" id="1cf9ac49-bbb6-4cef-b0c8-6bdd2c6218e1"  >
<rect style="stroke: none; stroke-width: 1; stroke-dasharray: none; stroke-linecap: butt; stroke-dashoffset: 0; stroke-linejoin: miter; stroke-miterlimit: 4; fill: rgb(255,255,255); fill-rule: nonzero; opacity: 1; visibility: hidden;" vector-effect="non-scaling-stroke"  x="-540" y="-540" rx="0" ry="0" width="1080" height="1080" />
</g>
<g transform="matrix(1 0 0 1 540 540)" id="6b3bc997-2d0f-477a-9918-0e116dd7f295"  >
</g>
<g transform="matrix(1 0 0 1 540 909.27)" style="" id="af00b47f-675f-43ac-89b2-0db3cc7b263f"  >
		<text xml:space="preserve" font-family="Raleway" font-size="132" font-style="normal" font-weight="900" style="stroke: none; stroke-width: 1; stroke-dasharray: none; stroke-linecap: butt; stroke-dashoffset: 0; stroke-linejoin: miter; stroke-miterlimit: 4; fill: rgb(255,255,255); fill-rule: nonzero; opacity: 1; white-space: pre;" ><tspan x="-139.13" y="-33.11" >Play</tspan><tspan x="-387.09" y="116.05" >TileGuessr !</tspan></text>
</g>
<g transform="matrix(5.35 0 0 5.35 431.52 478.38)" id="07891280-87c2-42a1-8b86-8ef35ade5d95"  >
<circle style="stroke: rgb(0,0,0); stroke-width: 0; stroke-dasharray: none; stroke-linecap: butt; stroke-dashoffset: 0; stroke-linejoin: miter; stroke-miterlimit: 4; fill: rgb(63,125,128); fill-rule: nonzero; opacity: 1;" vector-effect="non-scaling-stroke"  cx="0" cy="0" r="35" />
</g>
<g transform="matrix(20.09 0 0 20.09 540 368.04)"  >
<g style="" vector-effect="non-scaling-stroke"   >
		<g transform="matrix(1 0 0 1 0 0)"  >
<path style="stroke: none; stroke-width: 1; stroke-dasharray: none; stroke-linecap: butt; stroke-dashoffset: 0; stroke-linejoin: miter; stroke-miterlimit: 4; fill: rgb(0,0,0); fill-rule: nonzero; opacity: 1;" vector-effect="non-scaling-stroke"  transform=" translate(-16, -16)" d="M 23.181 30.312 L 22.82 29.689 C 26.464 27.576999999999998 28.639 23.955 28.64 20.000999999999998 L 29.361 20.000999999999998 C 29.359 24.214 27.049 28.068 23.181 30.312 z M 28.534 15.889 C 28.41 15.889 28.288999999999998 15.825 28.221999999999998 15.709 L 25.302 10.661 L 24.149 11.327 C 24.069000000000003 11.373 23.975 11.386 23.884 11.365 L 22.556 11.043000000000001 C 22.650000000000002 11.444 22.644000000000002 11.864 22.535 12.273000000000001 C 22.359 12.927000000000001 21.94 13.473 21.353 13.812000000000001 C 21.270000000000003 13.860000000000001 21.17 13.872000000000002 21.081000000000003 13.848 C 20.988000000000003 13.824000000000002 20.910000000000004 13.763 20.862000000000002 13.681000000000001 L 19.931 12.068000000000001 L 19.179000000000002 12.502 L 18.82 11.878 L 19.571 11.445 L 18.688000000000002 9.915000000000001 C 18.640000000000004 9.832 18.627000000000002 9.734000000000002 18.652 9.642000000000001 C 18.677 9.55 18.737000000000002 9.471000000000002 18.82 9.423000000000002 C 19.807 8.852000000000002 21.024 9.027000000000001 21.817 9.766000000000002 L 22.203 8.453000000000001 C 22.229 8.364 22.288999999999998 8.289000000000001 22.369 8.243 L 23.495 7.594 L 20.621000000000002 2.6020000000000003 C 20.522 2.43 20.582 2.21 20.754 2.11 L 23.216 0.6889999999999998 C 23.297 0.6409999999999998 23.395 0.6279999999999999 23.489 0.6529999999999998 C 23.581 0.6779999999999998 23.66 0.7379999999999998 23.708000000000002 0.8209999999999998 L 26.580000000000002 5.814 L 27.503 5.282 C 27.674 5.184 27.895 5.241 27.994 5.414 L 29.415 7.875 C 29.462999999999997 7.958 29.476 8.056 29.451 8.148 C 29.426000000000002 8.24 29.366 8.318999999999999 29.283 8.366999999999999 L 28.388 8.883 L 31.311 13.928999999999998 C 31.358999999999998 14.011999999999999 31.372 14.109999999999998 31.347 14.203 C 31.323 14.295 31.262 14.373999999999999 31.179000000000002 14.421999999999999 L 28.713 15.842999999999998 C 28.657 15.874 28.596 15.889 28.534 15.889 z M 25.927 10.302 L 28.666 15.038 L 30.508 13.976 L 27.765 9.241 L 25.927 10.302 z M 19.51 9.897 L 21.288 12.978 C 21.554000000000002 12.744 21.745 12.437 21.839 12.087 C 21.962 11.629 21.903 11.151 21.673 10.737 C 21.666999999999998 10.728 21.660999999999998 10.719 21.656 10.71 C 21.65 10.701 21.645 10.691 21.641 10.682 C 21.197 9.943 20.298 9.632 19.51 9.897 z M 22.42 10.27 L 23.914 10.632 L 28.611 7.923 L 27.55 6.086 L 22.853 8.795 L 22.42 10.27 z M 21.425 2.553 L 24.118000000000002 7.234 L 25.956000000000003 6.173 L 23.264000000000003 1.492 L 21.425 2.553 z M 10.5 31.36 C 9.458 31.36 8.454 31.197 7.511 30.896 C 7.477 30.89 7.4430000000000005 30.879 7.412 30.864 C 6.785 30.657 6.186 30.388 5.621 30.065 C 5.604 30.059 5.588 30.051000000000002 5.572 30.042 C 5.556 30.033 5.54 30.022000000000002 5.526 30.011000000000003 C 2.605 28.297 0.64 25.124 0.64 21.5 C 0.64 19.751 1.098 18.106 1.9 16.68 C 1.9029999999999998 16.675 1.906 16.669 1.9089999999999998 16.664 C 3.602 13.667000000000002 6.819 11.64 10.498999999999999 11.64 C 15.936 11.64 20.358999999999998 16.063000000000002 20.358999999999998 21.5 C 20.36 26.937 15.937 31.36 10.5 31.36 z M 8.279 30.367 C 8.99 30.545 9.734 30.64 10.5 30.64 C 14.981 30.64 18.719 27.399 19.493000000000002 23.138 L 18.115000000000002 23.138 C 17.709000000000003 23.138 17.331000000000003 22.919 17.129 22.568 L 15.613000000000001 19.932000000000002 C 15.412 19.582 15.412 19.149 15.612000000000002 18.799000000000003 L 17.46 15.582000000000003 C 15.867 13.710000000000003 13.533000000000001 12.487000000000002 10.917000000000002 12.369000000000003 L 12.006000000000002 14.255000000000003 C 12.271000000000003 14.715000000000003 12.186000000000002 15.291000000000002 11.798000000000002 15.654000000000003 L 9.398000000000001 17.868000000000002 C 9.257 18 9.226 18.211 9.323 18.38 L 12.971 24.715 C 13.235 25.173 13.151 25.746 12.766 26.11 L 8.279 30.367 z M 6.249 29.59 C 6.645 29.799 7.058 29.98 7.484 30.129 L 12.271 25.587000000000003 C 12.413 25.452 12.444 25.242000000000004 12.347000000000001 25.074 L 8.699000000000002 18.739 C 8.434000000000001 18.278000000000002 8.520000000000001 17.704 8.907000000000002 17.341 L 11.307000000000002 15.127 C 11.448000000000002 14.996 11.479000000000003 14.784 11.381000000000002 14.616000000000001 L 10.085000000000003 12.369000000000002 C 6.916000000000002 12.512000000000002 4.162000000000003 14.275000000000002 2.634000000000003 16.848000000000003 L 3.611000000000003 18.53 C 3.6850000000000027 18.658 3.823000000000003 18.737000000000002 3.9710000000000027 18.737000000000002 L 6.476000000000003 18.737000000000002 C 6.882000000000002 18.737000000000002 7.259000000000003 18.956000000000003 7.461000000000003 19.306 L 8.490000000000002 21.087 C 8.755000000000003 21.546 8.671000000000001 22.121 8.284000000000002 22.483999999999998 L 6.905000000000003 23.781 C 6.763000000000003 23.913999999999998 6.733000000000003 24.124 6.830000000000003 24.293 L 7.741000000000003 25.871 C 7.9440000000000035 26.223 7.943000000000003 26.657999999999998 7.741000000000003 27.009 L 6.249 29.59 z M 2.236 17.597 C 1.674 18.781 1.36 20.104 1.36 21.5 C 1.36 24.749 3.064 27.607 5.626 29.229 L 7.118 26.65 C 7.192 26.520999999999997 7.192 26.360999999999997 7.118 26.232 L 6.207000000000001 24.654 C 5.942000000000001 24.195 6.027000000000001 23.621 6.413000000000001 23.258 L 7.792000000000002 21.961 C 7.934000000000002 21.828 7.965000000000002 21.616999999999997 7.867000000000002 21.447999999999997 L 6.838000000000002 19.666999999999998 C 6.764000000000002 19.537999999999997 6.626000000000002 19.459 6.477000000000002 19.459 L 3.971 19.459 C 3.568 19.459 3.191 19.242 2.988 18.893 L 2.236 17.597 z M 17.938 16.194 L 16.235999999999997 19.157 C 16.162999999999997 19.285 16.162999999999997 19.444 16.235999999999997 19.572 L 17.752999999999997 22.208 C 17.826999999999998 22.337 17.964999999999996 22.416999999999998 18.113999999999997 22.416999999999998 L 19.592999999999996 22.416999999999998 C 19.621999999999996 22.115 19.637999999999998 21.81 19.637999999999998 21.499999999999996 C 19.64 19.523 19.01 17.691 17.938 16.194 z M 10.509 2 L 10.962 1.547 C 11.103 1.406 11.103 1.1789999999999998 10.962 1.0379999999999998 C 10.821 0.8969999999999998 10.594 0.8969999999999998 10.453 1.0379999999999998 L 10 1.491 L 9.547 1.039 C 9.406 0.8979999999999999 9.179 0.8979999999999999 9.038 1.039 C 8.897 1.18 8.897 1.407 9.038 1.548 L 9.491 2 L 9.039 2.453 C 8.898 2.594 8.898 2.8209999999999997 9.039 2.9619999999999997 C 9.109 3.0319999999999996 9.201 3.0669999999999997 9.293 3.0669999999999997 C 9.384999999999998 3.0669999999999997 9.476999999999999 3.0319999999999996 9.546999999999999 2.9619999999999997 L 10 2.509 L 10.453 2.9619999999999997 C 10.523 3.0319999999999996 10.615 3.0669999999999997 10.706999999999999 3.0669999999999997 C 10.798999999999998 3.0669999999999997 10.890999999999998 3.0319999999999996 10.960999999999999 2.9619999999999997 C 11.101999999999999 2.8209999999999997 11.101999999999999 2.594 10.960999999999999 2.453 L 10.509 2 z M 2.509 8 L 2.9619999999999997 7.547 C 3.1029999999999998 7.406 3.1029999999999998 7.178999999999999 2.9619999999999997 7.037999999999999 C 2.8209999999999997 6.896999999999999 2.594 6.896999999999999 2.453 7.037999999999999 L 2 7.491 L 1.547 7.039 C 1.406 6.898 1.1789999999999998 6.898 1.0379999999999998 7.039 C 0.8969999999999998 7.18 0.8969999999999998 7.407 1.0379999999999998 7.548 L 1.491 8 L 1.039 8.453 C 0.8979999999999999 8.594 0.8979999999999999 8.821 1.039 8.962 C 1.109 9.032 1.2009999999999998 9.067 1.293 9.067 C 1.385 9.067 1.4769999999999999 9.032 1.547 8.962 L 2 8.509 L 2.453 8.962 C 2.5229999999999997 9.032 2.6149999999999998 9.067 2.707 9.067 C 2.799 9.067 2.891 9.032 2.961 8.962 C 3.102 8.821 3.102 8.594 2.961 8.453 L 2.509 8 z" stroke-linecap="round" />
</g>
		<g transform="matrix(1 0 0 1 0 0)" id="_Transparent_Rectangle"  >
<rect style="stroke: none; stroke-width: 1; stroke-dasharray: none; stroke-linecap: butt; stroke-dashoffset: 0; stroke-linejoin: miter; stroke-miterlimit: 4; fill: none; fill-rule: nonzero; opacity: 1;" vector-effect="non-scaling-stroke"  x="-16" y="-16" rx="0" ry="0" width="32" height="32" />
</g>
</g>
</g>
</svg>